<svg width="35" height="36" viewBox="0 0 35 36" fill="none" xmlns="http://www.w3.org/2000/svg">
<g opacity="0.8">
<path fill-rule="evenodd" clip-rule="evenodd" d="M11.415 2.27979H28.9831C31.8939 2.27979 34.2535 4.91911 34.2535 8.17487V27.8252C34.2535 31.0809 31.8939 33.7202 28.9831 33.7202H11.415C8.50419 33.7202 6.14453 31.0809 6.14453 27.8252L6.14453 8.17487C6.14453 4.91911 8.50419 2.27979 11.415 2.27979Z" fill="#0D6EFD" fill-opacity="0.2"/>
<path fill-rule="evenodd" clip-rule="evenodd" d="M6.51365 2.27979H25.0064C28.0704 2.27979 30.5542 4.91911 30.5542 8.17487V27.8252C30.5542 31.0809 28.0704 33.7202 25.0064 33.7202H6.51365C3.44967 33.7202 0.96582 31.0809 0.96582 27.8252L0.96582 8.17487C0.96582 4.91911 3.44967 2.27979 6.51365 2.27979Z" fill="#0D6EFD"/>
<g opacity="0.7">
<path opacity="0.3" fill-rule="evenodd" clip-rule="evenodd" d="M12.0509 15.1484H11.2927C11.2536 15.1484 11.1956 15.2035 11.1934 15.2398L10.6348 24.3765L21.0716 24.3745L20.5074 15.2398C20.5053 15.2048 20.4459 15.1484 20.4082 15.1484H19.6499V16.6865C19.6499 17.1112 19.3097 17.4555 18.89 17.4555C18.4703 17.4555 18.1301 17.1112 18.1301 16.6865V15.1484H13.5707V16.6865C13.5707 17.1112 13.2305 17.4555 12.8108 17.4555C12.3912 17.4555 12.0509 17.1112 12.0509 16.6865V15.1484Z" fill="white"/>
<path fill-rule="evenodd" clip-rule="evenodd" d="M15.8509 9.76562C17.9482 9.76562 19.6503 11.4884 19.6503 13.6089L20.4086 13.6107C21.2489 13.6107 21.9725 14.2986 22.0247 15.1441L22.5952 24.3814C22.6475 25.2283 22.0116 25.9148 21.1739 25.9148H10.5279C9.69057 25.9148 9.05429 25.2269 9.10651 24.3814L9.677 15.1441C9.7293 14.2972 10.4514 13.6107 11.2931 13.6107H12.0514C12.0514 11.4873 13.7549 9.76562 15.8509 9.76562ZM18.1305 13.6108C18.1305 12.3379 17.1088 11.3037 15.8509 11.3037C14.5938 11.3037 13.5712 12.3372 13.5712 13.6089L18.1305 13.6108ZM12.0514 15.1486H11.2931C11.254 15.1486 11.1961 15.2037 11.1938 15.24L10.6352 24.3767L21.072 24.3747L20.5079 15.24C20.5057 15.205 20.4463 15.1486 20.4086 15.1486H19.6503V16.6867C19.6503 17.1114 19.3101 17.4557 18.8904 17.4557C18.4708 17.4557 18.1305 17.1114 18.1305 16.6867V15.1486H13.5712V16.6867C13.5712 17.1114 13.231 17.4557 12.8113 17.4557C12.3916 17.4557 12.0514 17.1114 12.0514 16.6867V15.1486Z" fill="white"/>
</g>
</g>
</svg>
